<?xml version="1.0" standalone="no"?>
<!DOCTYPE svg PUBLIC "-//W3C//DTD SVG 20010904//EN"
 "http://www.w3.org/TR/2001/REC-SVG-20010904/DTD/svg10.dtd">
<svg version="1.0" xmlns="http://www.w3.org/2000/svg"
 width="616.000000pt" height="113.000000pt" viewBox="0 0 616.000000 113.000000"
 preserveAspectRatio="xMidYMid meet">

<g transform="translate(0.000000,113.000000) scale(0.100000,-0.100000)"
fill="#000000" stroke="none">
<path d="M2440 946 c-138 -38 -255 -156 -294 -296 -10 -34 -15 -68 -12 -76 5
-13 67 -14 438 -12 l433 3 -3 42 c-8 135 -140 287 -289 333 -75 23 -201 26
-273 6z"/>
<path d="M1427 868 c-35 -84 -212 -461 -250 -533 -37 -70 -47 -82 -79 -92 -43
-14 -136 -2 -150 20 -4 6 -7 133 -5 282 l2 269 25 13 c14 7 37 15 53 18 15 3
27 12 27 20 0 12 -22 15 -125 17 -69 0 -130 1 -136 2 -6 1 -22 -26 -36 -59
-45 -109 -186 -405 -193 -405 -7 0 -115 221 -175 360 -21 47 -41 89 -45 93 -4
4 -68 9 -143 10 -123 2 -137 0 -137 -15 0 -12 11 -19 38 -24 77 -14 72 5 72
-284 0 -142 -4 -270 -9 -284 -8 -19 -20 -27 -53 -33 -28 -6 -44 -14 -46 -26
-3 -15 10 -17 143 -17 133 0 146 2 143 17 -2 12 -17 20 -47 25 -25 4 -48 12
-51 18 -16 26 -27 470 -12 470 5 0 25 -37 45 -82 20 -46 74 -164 121 -263 106
-227 111 -229 173 -93 23 51 77 169 120 262 l78 170 3 -229 c1 -126 -1 -232
-6 -237 -5 -5 -28 -12 -53 -16 -30 -5 -45 -13 -47 -25 -3 -16 19 -17 318 -17
301 0 321 1 318 18 -2 10 -14 18 -30 20 -46 5 -49 21 -19 97 l28 70 124 0 124
0 27 -55 c40 -83 35 -110 -22 -110 -18 0 -34 -23 -23 -34 4 -3 85 -6 180 -6
157 0 174 2 171 17 -2 9 -20 21 -43 27 -37 11 -43 18 -85 101 -52 102 -118
243 -201 425 -43 97 -61 126 -77 128 -16 2 -25 -5 -35 -30z m39 -294 c24 -54
44 -101 44 -106 0 -4 -43 -8 -95 -8 -52 0 -95 4 -95 9 0 4 13 37 29 72 16 35
36 82 45 103 9 22 19 36 22 33 4 -4 26 -50 50 -103z"/>
<path d="M2134 478 c11 -73 70 -181 130 -235 177 -162 434 -163 611 -1 61 55
120 162 131 236 l7 42 -443 0 -443 0 7 -42z"/>
</g>
</svg>
